<svg width="16" height="15" viewBox="0 0 16 15" fill="none" xmlns="http://www.w3.org/2000/svg">
<g clip-path="url(#clip0_272_589)">
<path d="M11.0144 9.01911H10.3805L10.1559 8.80247C10.9422 7.88778 11.4156 6.70028 11.4156 5.40848C11.4156 2.52799 9.08071 0.193115 6.20022 0.193115C3.31974 0.193115 0.984863 2.52799 0.984863 5.40848C0.984863 8.28896 3.31974 10.6238 6.20022 10.6238C7.49203 10.6238 8.67953 10.1504 9.59422 9.36413L9.81086 9.58879V10.2227L13.8227 14.2264L15.0182 13.0309L11.0144 9.01911ZM6.20022 9.01911C4.20234 9.01911 2.58959 7.40636 2.58959 5.40848C2.58959 3.41059 4.20234 1.79784 6.20022 1.79784C8.19811 1.79784 9.81086 3.41059 9.81086 5.40848C9.81086 7.40636 8.19811 9.01911 6.20022 9.01911Z" fill="white"/>
</g>
<defs>
<clipPath id="clip0_272_589">
<rect width="14.0333" height="14.0333" fill="white" transform="translate(0.984863 0.193115)"/>
</clipPath>
</defs>
</svg>
