<svg width="22" height="22" viewBox="0 0 22 22" fill="none" xmlns="http://www.w3.org/2000/svg">
<g clip-path="url(#clip0_272_665)">
<path d="M6.16119 -0.00973511C2.93235 -0.00973511 0.313965 2.60865 0.313965 5.83749V15.193C0.313965 18.4219 2.93235 21.0403 6.16119 21.0403H15.5167C18.7456 21.0403 21.364 18.4219 21.364 15.193V5.83749C21.364 2.60865 18.7456 -0.00973511 15.5167 -0.00973511H6.16119ZM17.8556 2.32915C18.5012 2.32915 19.0251 2.85306 19.0251 3.4986C19.0251 4.14413 18.5012 4.66804 17.8556 4.66804C17.2101 4.66804 16.6862 4.14413 16.6862 3.4986C16.6862 2.85306 17.2101 2.32915 17.8556 2.32915ZM10.839 4.66804C14.0678 4.66804 16.6862 7.28643 16.6862 10.5153C16.6862 13.7441 14.0678 16.3625 10.839 16.3625C7.61013 16.3625 4.99174 13.7441 4.99174 10.5153C4.99174 7.28643 7.61013 4.66804 10.839 4.66804ZM10.839 7.00693C9.9085 7.00693 9.01614 7.37656 8.3582 8.0345C7.70026 8.69244 7.33063 9.5848 7.33063 10.5153C7.33063 11.4457 7.70026 12.3381 8.3582 12.996C9.01614 13.654 9.9085 14.0236 10.839 14.0236C11.7694 14.0236 12.6618 13.654 13.3197 12.996C13.9777 12.3381 14.3473 11.4457 14.3473 10.5153C14.3473 9.5848 13.9777 8.69244 13.3197 8.0345C12.6618 7.37656 11.7694 7.00693 10.839 7.00693Z" fill="white"/>
</g>
<defs>
<clipPath id="clip0_272_665">
<rect width="21.05" height="21.05" fill="white" transform="translate(0.313965 -0.00973511)"/>
</clipPath>
</defs>
</svg>
