<svg width="22" height="22" viewBox="0 0 22 22" fill="none" xmlns="http://www.w3.org/2000/svg">
<g clip-path="url(#clip0_272_669)">
<path d="M9.15361 5.82345L15.7388 15.2071H13.9881L7.41465 5.82345H9.15361ZM21.9555 3.4986V17.5319C21.9555 19.4697 20.385 21.0403 18.4472 21.0403H4.41385C2.47608 21.0403 0.905518 19.4697 0.905518 17.5319V3.4986C0.905518 1.56083 2.47608 -0.00973511 4.41385 -0.00973511H18.4472C20.385 -0.00973511 21.9555 1.56083 21.9555 3.4986ZM17.9069 16.3625L13.0116 9.35752L17.0134 4.66804H15.4803L12.3181 8.36349L9.73716 4.66804H5.2348L9.84358 11.2555L5.47337 16.3625H7.03224L10.5417 12.2507L13.4162 16.3625H17.9069Z" fill="white"/>
</g>
<defs>
<clipPath id="clip0_272_669">
<rect width="21.05" height="21.05" fill="white" transform="translate(0.905518 -0.00973511)"/>
</clipPath>
</defs>
</svg>
