<svg width="16" height="15" viewBox="0 0 16 15" fill="none" xmlns="http://www.w3.org/2000/svg">
<g clip-path="url(#clip0_308_4192)">
<path d="M11.0143 8.9358H10.3804L10.1558 8.71916C10.9421 7.80447 11.4155 6.61697 11.4155 5.32516C11.4155 2.44468 9.08059 0.109802 6.2001 0.109802C3.31962 0.109802 0.984741 2.44468 0.984741 5.32516C0.984741 8.20565 3.31962 10.5405 6.2001 10.5405C7.49191 10.5405 8.6794 10.0671 9.5941 9.28081L9.81074 9.50548V10.1393L13.8226 14.1431L15.0181 12.9476L11.0143 8.9358ZM6.2001 8.9358C4.20222 8.9358 2.58947 7.32305 2.58947 5.32516C2.58947 3.32728 4.20222 1.71453 6.2001 1.71453C8.19799 1.71453 9.81074 3.32728 9.81074 5.32516C9.81074 7.32305 8.19799 8.9358 6.2001 8.9358Z" fill="black"/>
</g>
<defs>
<clipPath id="clip0_308_4192">
<rect width="14.0333" height="14.0333" fill="white" transform="translate(0.984741 0.109802)"/>
</clipPath>
</defs>
</svg>
